<svg xmlns="http://www.w3.org/2000/svg" version="1.1" xmlns:xlink="http://www.w3.org/1999/xlink" xmlns:svgjs="http://svgjs.com/svgjs" width="1000" height="1000"><rect width="1000" height="1000" rx="200" ry="200" fill="#140000"></rect><g transform="matrix(1.6,0,0,1.6,100.05294494628902,99.99999313354488)"><svg xmlns="http://www.w3.org/2000/svg" version="1.1" xmlns:xlink="http://www.w3.org/1999/xlink" xmlns:svgjs="http://svgjs.com/svgjs" width="500" height="500"><svg xmlns="http://www.w3.org/2000/svg" xmlns:xlink="http://www.w3.org/1999/xlink" width="500" zoomAndPan="magnify" viewBox="0 0 375 374.999991" height="500" preserveAspectRatio="xMidYMid meet" version="1.0"><path fill="#dbdbdb" d="M 332.144531 69.644531 C 353.570312 93.75 345.535156 123.214844 318.75 152.679688 C 270.535156 200.894531 166.070312 246.429688 58.929688 259.820312 C 40.179688 262.5 18.75 262.5 0 262.5 C 21.429688 270.535156 45.535156 273.214844 69.644531 273.214844 C 96.429688 308.035156 136.605469 329.464844 182.144531 329.464844 C 249.105469 329.464844 305.355469 281.25 321.429688 219.644531 C 291.964844 235.714844 254.464844 249.105469 211.605469 254.464844 C 257.144531 238.394531 297.320312 216.964844 324.105469 195.535156 C 380.355469 150 399.105469 96.429688 332.144531 72.320312 Z M 286.605469 69.644531 C 286.605469 80.355469 294.644531 88.394531 305.355469 88.394531 C 316.070312 88.394531 324.105469 80.355469 324.105469 69.644531 C 324.105469 58.929688 316.070312 50.894531 305.355469 50.894531 C 294.644531 50.894531 286.605469 58.929688 286.605469 69.644531 Z M 286.605469 69.644531 " fill-opacity="1" fill-rule="evenodd"></path><path fill="#ff5757" d="M 168.75 91.070312 C 166.070312 77.679688 166.070312 61.605469 166.070312 48.214844 C 117.855469 53.570312 77.679688 83.035156 56.25 123.214844 C 64.285156 120.535156 75 117.855469 83.035156 115.179688 C 83.035156 107.144531 91.070312 101.785156 99.105469 101.785156 C 104.464844 101.785156 109.820312 104.464844 112.5 109.820312 C 128.570312 107.144531 144.644531 104.464844 160.714844 104.464844 C 163.394531 99.105469 166.070312 96.429688 171.429688 93.75 Z M 190.179688 93.75 C 211.605469 83.035156 238.394531 77.679688 267.855469 75 C 243.75 56.25 214.285156 45.535156 182.144531 45.535156 C 182.144531 45.535156 179.464844 45.535156 179.464844 45.535156 C 179.464844 58.929688 179.464844 75 182.144531 88.394531 C 184.820312 88.394531 190.179688 91.070312 192.855469 93.75 Z M 195.535156 104.464844 C 233.035156 109.820312 270.535156 123.214844 305.355469 150 C 305.355469 150 308.035156 147.320312 308.035156 147.320312 C 308.035156 147.320312 310.714844 144.644531 310.714844 144.644531 C 302.679688 123.214844 291.964844 104.464844 275.894531 88.394531 L 270.535156 88.394531 C 241.070312 88.394531 214.285156 96.429688 192.855469 104.464844 Z M 187.5 125.894531 C 195.535156 152.679688 206.25 179.464844 219.644531 203.570312 C 246.429688 190.179688 275.894531 176.785156 300 155.355469 C 265.179688 131.25 230.355469 117.855469 195.535156 112.5 C 192.855469 117.855469 190.179688 120.535156 187.5 123.214844 Z M 163.394531 123.214844 C 123.214844 152.679688 96.429688 198.214844 69.644531 246.429688 C 72.320312 246.429688 75 246.429688 77.679688 246.429688 C 123.214844 238.394531 168.75 225 211.605469 208.929688 C 195.535156 182.144531 184.820312 155.355469 176.785156 128.570312 C 171.429688 128.570312 166.070312 125.894531 163.394531 123.214844 Z M 158.035156 112.5 C 144.644531 112.5 128.570312 115.179688 112.5 117.855469 C 112.5 125.894531 104.464844 131.25 96.429688 131.25 C 91.070312 131.25 85.714844 128.570312 83.035156 125.894531 C 72.320312 128.570312 61.605469 131.25 50.894531 136.605469 L 45.535156 139.285156 C 40.179688 155.355469 34.820312 174.105469 34.820312 192.855469 C 34.820312 214.285156 40.179688 235.714844 48.214844 254.464844 L 50.894531 254.464844 L 53.570312 251.785156 C 80.355469 198.214844 109.820312 150 152.679688 120.535156 Z M 158.035156 112.5 " fill-opacity="1" fill-rule="evenodd"></path></svg></svg></g></svg>