<svg xmlns="http://www.w3.org/2000/svg" xmlns:xlink="http://www.w3.org/1999/xlink"  zoomAndPan="magnify" viewBox="0 0 600 225" preserveAspectRatio="xMidYMid meet" version="1.0"><defs><g/><clipPath id="4715cff16a"><path d="M 16.90625 30 L 241.515625 30 L 241.515625 198 L 16.90625 198 Z M 16.90625 30 " clip-rule="nonzero"/></clipPath></defs><g clip-path="url(#4715cff16a)"><path fill="#868484" d="M 215.84375 41.710938 C 228.679688 56.152344 223.867188 73.800781 207.824219 91.445312 C 178.945312 120.324219 116.375 147.597656 52.203125 155.621094 C 40.972656 157.226562 28.136719 157.226562 16.90625 157.226562 C 29.742188 162.039062 44.179688 163.640625 58.621094 163.640625 C 74.664062 184.5 98.730469 197.332031 126.003906 197.332031 C 166.109375 197.332031 199.800781 168.457031 209.425781 131.554688 C 191.78125 141.179688 169.320312 149.203125 143.648438 152.410156 C 170.921875 142.785156 194.988281 129.949219 211.03125 117.117188 C 244.722656 89.84375 255.953125 57.757812 215.84375 43.316406 Z M 188.570312 41.710938 C 188.570312 48.128906 193.382812 52.941406 199.800781 52.941406 C 206.21875 52.941406 211.03125 48.128906 211.03125 41.710938 C 211.03125 35.296875 206.21875 30.480469 199.800781 30.480469 C 193.382812 30.480469 188.570312 35.296875 188.570312 41.710938 Z M 188.570312 41.710938 " fill-opacity="1" fill-rule="evenodd"/></g><path fill="#ff5757" d="M 117.980469 54.546875 C 116.375 46.527344 116.375 36.898438 116.375 28.878906 C 87.5 32.085938 63.433594 49.734375 50.597656 73.800781 C 55.410156 72.195312 61.828125 70.589844 66.640625 68.988281 C 66.640625 64.171875 71.453125 60.964844 76.269531 60.964844 C 79.476562 60.964844 82.683594 62.570312 84.289062 65.777344 C 93.914062 64.171875 103.542969 62.570312 113.167969 62.570312 C 114.773438 59.359375 116.375 57.757812 119.585938 56.152344 Z M 130.816406 56.152344 C 143.648438 49.734375 159.691406 46.527344 177.339844 44.921875 C 162.902344 33.691406 145.253906 27.273438 126.003906 27.273438 C 126.003906 27.273438 124.398438 27.273438 124.398438 27.273438 C 124.398438 35.296875 124.398438 44.921875 126.003906 52.941406 C 127.605469 52.941406 130.816406 54.546875 132.417969 56.152344 Z M 134.023438 62.570312 C 156.484375 65.777344 178.945312 73.800781 199.800781 89.84375 C 199.800781 89.84375 201.40625 88.238281 201.40625 88.238281 C 201.40625 88.238281 203.011719 86.632812 203.011719 86.632812 C 198.199219 73.800781 191.78125 62.570312 182.152344 52.941406 L 178.945312 52.941406 C 161.296875 52.941406 145.253906 57.757812 132.417969 62.570312 Z M 129.210938 75.402344 C 134.023438 91.445312 140.441406 107.492188 148.464844 121.929688 C 164.507812 113.90625 182.152344 105.886719 196.59375 93.050781 C 175.738281 78.613281 154.878906 70.589844 134.023438 67.382812 C 132.417969 70.589844 130.816406 72.195312 129.210938 73.800781 Z M 114.773438 73.800781 C 90.707031 91.445312 74.664062 118.722656 58.621094 147.597656 C 60.222656 147.597656 61.828125 147.597656 63.433594 147.597656 C 90.707031 142.785156 117.980469 134.765625 143.648438 125.136719 C 134.023438 109.09375 127.605469 93.050781 122.792969 77.007812 C 119.585938 77.007812 116.375 75.402344 114.773438 73.800781 Z M 111.5625 67.382812 C 103.542969 67.382812 93.914062 68.988281 84.289062 70.589844 C 84.289062 75.402344 79.476562 78.613281 74.664062 78.613281 C 71.453125 78.613281 68.246094 77.007812 66.640625 75.402344 C 60.222656 77.007812 53.808594 78.613281 47.390625 81.820312 L 44.179688 83.425781 C 40.972656 93.050781 37.765625 104.28125 37.765625 115.511719 C 37.765625 128.347656 40.972656 141.179688 45.785156 152.410156 L 47.390625 152.410156 L 48.996094 150.808594 C 65.039062 118.722656 82.683594 89.84375 108.355469 72.195312 Z M 111.5625 67.382812 " fill-opacity="1" fill-rule="evenodd"/><g fill="#737373" fill-opacity="1"><g transform="translate(250.15997, 94.913879)"><g><path d="M 2.296875 -18.640625 C 2.296875 -22.273438 3.113281 -25.539062 4.75 -28.4375 C 6.394531 -31.34375 8.628906 -33.613281 11.453125 -35.25 C 14.285156 -36.894531 17.429688 -37.71875 20.890625 -37.71875 C 24.953125 -37.71875 28.492188 -36.738281 31.515625 -34.78125 C 34.546875 -32.820312 36.753906 -30.039062 38.140625 -26.4375 L 32.3125 -26.4375 C 31.28125 -28.6875 29.796875 -30.414062 27.859375 -31.625 C 25.921875 -32.832031 23.597656 -33.4375 20.890625 -33.4375 C 18.285156 -33.4375 15.953125 -32.832031 13.890625 -31.625 C 11.828125 -30.414062 10.207031 -28.695312 9.03125 -26.46875 C 7.851562 -24.238281 7.265625 -21.628906 7.265625 -18.640625 C 7.265625 -15.679688 7.851562 -13.085938 9.03125 -10.859375 C 10.207031 -8.640625 11.828125 -6.925781 13.890625 -5.71875 C 15.953125 -4.507812 18.285156 -3.90625 20.890625 -3.90625 C 23.597656 -3.90625 25.921875 -4.5 27.859375 -5.6875 C 29.796875 -6.882812 31.28125 -8.601562 32.3125 -10.84375 L 38.140625 -10.84375 C 36.753906 -7.28125 34.546875 -4.523438 31.515625 -2.578125 C 28.492188 -0.640625 24.953125 0.328125 20.890625 0.328125 C 17.429688 0.328125 14.285156 -0.484375 11.453125 -2.109375 C 8.628906 -3.734375 6.394531 -5.984375 4.75 -8.859375 C 3.113281 -11.742188 2.296875 -15.003906 2.296875 -18.640625 Z M 2.296875 -18.640625 "/></g></g></g><g fill="#737373" fill-opacity="1"><g transform="translate(296.312998, 94.913879)"><g><path d="M 21 0.375 C 17.539062 0.375 14.382812 -0.429688 11.53125 -2.046875 C 8.6875 -3.671875 6.4375 -5.929688 4.78125 -8.828125 C 3.125 -11.734375 2.296875 -15.003906 2.296875 -18.640625 C 2.296875 -22.273438 3.125 -25.539062 4.78125 -28.4375 C 6.4375 -31.34375 8.6875 -33.601562 11.53125 -35.21875 C 14.382812 -36.84375 17.539062 -37.65625 21 -37.65625 C 24.488281 -37.65625 27.65625 -36.84375 30.5 -35.21875 C 33.351562 -33.601562 35.597656 -31.351562 37.234375 -28.46875 C 38.867188 -25.582031 39.6875 -22.304688 39.6875 -18.640625 C 39.6875 -14.972656 38.867188 -11.695312 37.234375 -8.8125 C 35.597656 -5.925781 33.351562 -3.671875 30.5 -2.046875 C 27.65625 -0.429688 24.488281 0.375 21 0.375 Z M 21 -3.84375 C 23.59375 -3.84375 25.929688 -4.445312 28.015625 -5.65625 C 30.097656 -6.875 31.734375 -8.601562 32.921875 -10.84375 C 34.117188 -13.082031 34.71875 -15.679688 34.71875 -18.640625 C 34.71875 -21.628906 34.117188 -24.238281 32.921875 -26.46875 C 31.734375 -28.695312 30.109375 -30.414062 28.046875 -31.625 C 25.984375 -32.832031 23.632812 -33.4375 21 -33.4375 C 18.363281 -33.4375 16.007812 -32.832031 13.9375 -31.625 C 11.875 -30.414062 10.242188 -28.695312 9.046875 -26.46875 C 7.859375 -24.238281 7.265625 -21.628906 7.265625 -18.640625 C 7.265625 -15.679688 7.859375 -13.082031 9.046875 -10.84375 C 10.242188 -8.601562 11.882812 -6.875 13.96875 -5.65625 C 16.050781 -4.445312 18.394531 -3.84375 21 -3.84375 Z M 21 -3.84375 "/></g></g></g><g fill="#737373" fill-opacity="1"><g transform="translate(343.213882, 94.913879)"><g><path d="M 8.96875 -3.953125 L 22.015625 -3.953125 L 22.015625 0 L 4.109375 0 L 4.109375 -37.234375 L 8.96875 -37.234375 Z M 8.96875 -3.953125 "/></g></g></g><g fill="#737373" fill-opacity="1"><g transform="translate(371.205152, 94.913879)"><g><path d="M 8.96875 -3.953125 L 22.015625 -3.953125 L 22.015625 0 L 4.109375 0 L 4.109375 -37.234375 L 8.96875 -37.234375 Z M 8.96875 -3.953125 "/></g></g></g><g fill="#737373" fill-opacity="1"><g transform="translate(399.196422, 94.913879)"><g><path d="M 26.125 -8.28125 L 9.890625 -8.28125 L 6.890625 0 L 1.765625 0 L 15.21875 -37.015625 L 20.828125 -37.015625 L 34.25 0 L 29.109375 0 Z M 24.734375 -12.234375 L 18 -31.03125 L 11.265625 -12.234375 Z M 24.734375 -12.234375 "/></g></g></g><g fill="#737373" fill-opacity="1"><g transform="translate(440.114611, 94.913879)"><g><path d="M 22.75 -19.171875 C 24.101562 -18.960938 25.34375 -18.410156 26.46875 -17.515625 C 27.59375 -16.628906 28.484375 -15.523438 29.140625 -14.203125 C 29.796875 -12.890625 30.125 -11.484375 30.125 -9.984375 C 30.125 -8.097656 29.644531 -6.398438 28.6875 -4.890625 C 27.726562 -3.378906 26.332031 -2.1875 24.5 -1.3125 C 22.664062 -0.4375 20.5 0 18 0 L 4.109375 0 L 4.109375 -37.234375 L 17.46875 -37.234375 C 20 -37.234375 22.15625 -36.8125 23.9375 -35.96875 C 25.71875 -35.132812 27.050781 -34.003906 27.9375 -32.578125 C 28.832031 -31.160156 29.28125 -29.5625 29.28125 -27.78125 C 29.28125 -25.570312 28.679688 -23.742188 27.484375 -22.296875 C 26.296875 -20.859375 24.71875 -19.816406 22.75 -19.171875 Z M 8.96875 -21.15625 L 17.15625 -21.15625 C 19.425781 -21.15625 21.1875 -21.6875 22.4375 -22.75 C 23.6875 -23.820312 24.3125 -25.300781 24.3125 -27.1875 C 24.3125 -29.070312 23.6875 -30.550781 22.4375 -31.625 C 21.1875 -32.695312 19.390625 -33.234375 17.046875 -33.234375 L 8.96875 -33.234375 Z M 17.578125 -4 C 19.992188 -4 21.878906 -4.566406 23.234375 -5.703125 C 24.585938 -6.847656 25.265625 -8.4375 25.265625 -10.46875 C 25.265625 -12.53125 24.550781 -14.160156 23.125 -15.359375 C 21.707031 -16.554688 19.804688 -17.15625 17.421875 -17.15625 L 8.96875 -17.15625 L 8.96875 -4 Z M 17.578125 -4 "/></g></g></g><g fill="#737373" fill-opacity="1"><g transform="translate(477.774984, 94.913879)"><g/></g></g><g fill="#737373" fill-opacity="1"><g transform="translate(250.15997, 166.379707)"><g><path d="M 23.34375 0.546875 C 19.738281 0.546875 16.507812 -0.09375 13.65625 -1.375 C 10.8125 -2.65625 8.582031 -4.429688 6.96875 -6.703125 C 5.351562 -8.972656 4.519531 -11.59375 4.46875 -14.5625 L 12.0625 -14.5625 C 12.320312 -12.007812 13.378906 -9.859375 15.234375 -8.109375 C 17.085938 -6.359375 19.789062 -5.484375 23.34375 -5.484375 C 26.726562 -5.484375 29.398438 -6.332031 31.359375 -8.03125 C 33.316406 -9.726562 34.296875 -11.90625 34.296875 -14.5625 C 34.296875 -16.65625 33.722656 -18.351562 32.578125 -19.65625 C 31.429688 -20.957031 29.992188 -21.945312 28.265625 -22.625 C 26.546875 -23.3125 24.222656 -24.046875 21.296875 -24.828125 C 17.691406 -25.765625 14.804688 -26.703125 12.640625 -27.640625 C 10.472656 -28.578125 8.617188 -30.050781 7.078125 -32.0625 C 5.546875 -34.070312 4.78125 -36.773438 4.78125 -40.171875 C 4.78125 -43.148438 5.535156 -45.785156 7.046875 -48.078125 C 8.554688 -50.378906 10.679688 -52.15625 13.421875 -53.40625 C 16.171875 -54.65625 19.320312 -55.28125 22.875 -55.28125 C 27.988281 -55.28125 32.175781 -54 35.4375 -51.4375 C 38.695312 -48.882812 40.535156 -45.492188 40.953125 -41.265625 L 33.125 -41.265625 C 32.863281 -43.359375 31.765625 -45.203125 29.828125 -46.796875 C 27.898438 -48.390625 25.34375 -49.1875 22.15625 -49.1875 C 19.1875 -49.1875 16.757812 -48.414062 14.875 -46.875 C 13 -45.332031 12.0625 -43.175781 12.0625 -40.40625 C 12.0625 -38.425781 12.617188 -36.804688 13.734375 -35.546875 C 14.859375 -34.296875 16.242188 -33.34375 17.890625 -32.6875 C 19.535156 -32.039062 21.847656 -31.300781 24.828125 -30.46875 C 28.429688 -29.46875 31.328125 -28.484375 33.515625 -27.515625 C 35.710938 -26.554688 37.59375 -25.070312 39.15625 -23.0625 C 40.71875 -21.050781 41.5 -18.320312 41.5 -14.875 C 41.5 -12.21875 40.796875 -9.710938 39.390625 -7.359375 C 37.984375 -5.015625 35.894531 -3.109375 33.125 -1.640625 C 30.351562 -0.179688 27.09375 0.546875 23.34375 0.546875 Z M 23.34375 0.546875 "/></g></g></g><g fill="#737373" fill-opacity="1"><g transform="translate(303.328289, 166.379707)"><g><path d="M 42.53125 -38.609375 C 42.53125 -34.066406 40.972656 -30.289062 37.859375 -27.28125 C 34.753906 -24.28125 30.019531 -22.78125 23.65625 -22.78125 L 13.15625 -22.78125 L 13.15625 0 L 6.03125 0 L 6.03125 -54.578125 L 23.65625 -54.578125 C 29.8125 -54.578125 34.492188 -53.085938 37.703125 -50.109375 C 40.921875 -47.140625 42.53125 -43.304688 42.53125 -38.609375 Z M 23.65625 -28.65625 C 27.625 -28.65625 30.546875 -29.515625 32.421875 -31.234375 C 34.296875 -32.960938 35.234375 -35.421875 35.234375 -38.609375 C 35.234375 -45.335938 31.375 -48.703125 23.65625 -48.703125 L 13.15625 -48.703125 L 13.15625 -28.65625 Z M 23.65625 -28.65625 "/></g></g></g><g fill="#737373" fill-opacity="1"><g transform="translate(355.870181, 166.379707)"><g><path d="M 48.078125 -54.578125 L 48.078125 0 L 40.953125 0 L 40.953125 -24.75 L 13.15625 -24.75 L 13.15625 0 L 6.03125 0 L 6.03125 -54.578125 L 13.15625 -54.578125 L 13.15625 -30.625 L 40.953125 -30.625 L 40.953125 -54.578125 Z M 48.078125 -54.578125 "/></g></g></g><g fill="#737373" fill-opacity="1"><g transform="translate(417.260266, 166.379707)"><g><path d="M 13.15625 -48.78125 L 13.15625 -30.546875 L 33.046875 -30.546875 L 33.046875 -24.671875 L 13.15625 -24.671875 L 13.15625 -5.875 L 35.390625 -5.875 L 35.390625 0 L 6.03125 0 L 6.03125 -54.65625 L 35.390625 -54.65625 L 35.390625 -48.78125 Z M 13.15625 -48.78125 "/></g></g></g><g fill="#737373" fill-opacity="1"><g transform="translate(464.634186, 166.379707)"><g><path d="M 34.765625 0 L 21.765625 -22.3125 L 13.15625 -22.3125 L 13.15625 0 L 6.03125 0 L 6.03125 -54.578125 L 23.65625 -54.578125 C 27.78125 -54.578125 31.265625 -53.875 34.109375 -52.46875 C 36.953125 -51.0625 39.078125 -49.15625 40.484375 -46.75 C 41.898438 -44.351562 42.609375 -41.613281 42.609375 -38.53125 C 42.609375 -34.769531 41.523438 -31.453125 39.359375 -28.578125 C 37.191406 -25.710938 33.941406 -23.8125 29.609375 -22.875 L 43.3125 0 Z M 13.15625 -28.03125 L 23.65625 -28.03125 C 27.519531 -28.03125 30.414062 -28.984375 32.34375 -30.890625 C 34.269531 -32.796875 35.234375 -35.34375 35.234375 -38.53125 C 35.234375 -41.769531 34.28125 -44.273438 32.375 -46.046875 C 30.476562 -47.816406 27.570312 -48.703125 23.65625 -48.703125 L 13.15625 -48.703125 Z M 13.15625 -28.03125 "/></g></g></g><g fill="#737373" fill-opacity="1"><g transform="translate(519.446863, 166.379707)"><g><path d="M 13.15625 -48.78125 L 13.15625 -30.546875 L 33.046875 -30.546875 L 33.046875 -24.671875 L 13.15625 -24.671875 L 13.15625 -5.875 L 35.390625 -5.875 L 35.390625 0 L 6.03125 0 L 6.03125 -54.65625 L 35.390625 -54.65625 L 35.390625 -48.78125 Z M 13.15625 -48.78125 "/></g></g></g></svg>