<svg xmlns="http://www.w3.org/2000/svg" xmlns:xlink="http://www.w3.org/1999/xlink" width="590" zoomAndPan="magnify" viewBox="0 0 442.5 122.249994" height="163" preserveAspectRatio="xMidYMid meet" version="1.0"><defs><g/><clipPath id="4cd512c585"><path d="M 72.742188 44 L 116.027344 44 L 116.027344 77 L 72.742188 77 Z M 72.742188 44 " clip-rule="nonzero"/></clipPath></defs><g fill="#737373" fill-opacity="1"><g transform="translate(36.00251, 76.549471)"><g><path d="M 1.984375 -16.109375 C 1.984375 -19.242188 2.691406 -22.066406 4.109375 -24.578125 C 5.523438 -27.085938 7.453125 -29.050781 9.890625 -30.46875 C 12.335938 -31.882812 15.054688 -32.59375 18.046875 -32.59375 C 21.554688 -32.59375 24.617188 -31.742188 27.234375 -30.046875 C 29.847656 -28.359375 31.753906 -25.957031 32.953125 -22.84375 L 27.921875 -22.84375 C 27.035156 -24.78125 25.753906 -26.269531 24.078125 -27.3125 C 22.398438 -28.363281 20.390625 -28.890625 18.046875 -28.890625 C 15.796875 -28.890625 13.78125 -28.363281 12 -27.3125 C 10.21875 -26.269531 8.816406 -24.785156 7.796875 -22.859375 C 6.785156 -20.941406 6.28125 -18.691406 6.28125 -16.109375 C 6.28125 -13.554688 6.785156 -11.316406 7.796875 -9.390625 C 8.816406 -7.472656 10.21875 -5.988281 12 -4.9375 C 13.78125 -3.894531 15.796875 -3.375 18.046875 -3.375 C 20.390625 -3.375 22.398438 -3.890625 24.078125 -4.921875 C 25.753906 -5.953125 27.035156 -7.4375 27.921875 -9.375 L 32.953125 -9.375 C 31.753906 -6.289062 29.847656 -3.910156 27.234375 -2.234375 C 24.617188 -0.554688 21.554688 0.28125 18.046875 0.28125 C 15.054688 0.28125 12.335938 -0.414062 9.890625 -1.8125 C 7.453125 -3.21875 5.523438 -5.164062 4.109375 -7.65625 C 2.691406 -10.15625 1.984375 -12.972656 1.984375 -16.109375 Z M 1.984375 -16.109375 "/></g></g></g><g fill="#737373" fill-opacity="1"><g transform="translate(73.432566, 76.549471)"><g/></g></g><g fill="#737373" fill-opacity="1"><g transform="translate(87.55208, 76.549471)"><g/></g></g><g fill="#737373" fill-opacity="1"><g transform="translate(101.671594, 76.549471)"><g/></g></g><g fill="#737373" fill-opacity="1"><g transform="translate(115.794995, 76.549471)"><g><path d="M 7.75 -3.421875 L 19.015625 -3.421875 L 19.015625 0 L 3.546875 0 L 3.546875 -32.171875 L 7.75 -32.171875 Z M 7.75 -3.421875 "/></g></g></g><g fill="#737373" fill-opacity="1"><g transform="translate(137.52768, 76.549471)"><g><path d="M 7.75 -3.421875 L 19.015625 -3.421875 L 19.015625 0 L 3.546875 0 L 3.546875 -32.171875 L 7.75 -32.171875 Z M 7.75 -3.421875 "/></g></g></g><g fill="#737373" fill-opacity="1"><g transform="translate(159.260366, 76.549471)"><g><path d="M 22.578125 -7.15625 L 8.53125 -7.15625 L 5.953125 0 L 1.515625 0 L 13.15625 -31.984375 L 18 -31.984375 L 29.59375 0 L 25.15625 0 Z M 21.375 -10.5625 L 15.546875 -26.8125 L 9.734375 -10.5625 Z M 21.375 -10.5625 "/></g></g></g><g fill="#737373" fill-opacity="1"><g transform="translate(192.159032, 76.549471)"><g><path d="M 19.65625 -16.5625 C 20.832031 -16.382812 21.90625 -15.910156 22.875 -15.140625 C 23.84375 -14.367188 24.609375 -13.410156 25.171875 -12.265625 C 25.742188 -11.128906 26.03125 -9.914062 26.03125 -8.625 C 26.03125 -7 25.613281 -5.53125 24.78125 -4.21875 C 23.957031 -2.914062 22.75 -1.882812 21.15625 -1.125 C 19.570312 -0.375 17.703125 0 15.546875 0 L 3.546875 0 L 3.546875 -32.171875 L 15.09375 -32.171875 C 17.28125 -32.171875 19.140625 -31.804688 20.671875 -31.078125 C 22.210938 -30.359375 23.367188 -29.382812 24.140625 -28.15625 C 24.910156 -26.925781 25.296875 -25.539062 25.296875 -24 C 25.296875 -22.09375 24.78125 -20.515625 23.75 -19.265625 C 22.71875 -18.023438 21.351562 -17.125 19.65625 -16.5625 Z M 7.75 -18.28125 L 14.8125 -18.28125 C 16.78125 -18.28125 18.300781 -18.738281 19.375 -19.65625 C 20.457031 -20.582031 21 -21.863281 21 -23.5 C 21 -25.125 20.457031 -26.394531 19.375 -27.3125 C 18.300781 -28.238281 16.75 -28.703125 14.71875 -28.703125 L 7.75 -28.703125 Z M 15.1875 -3.46875 C 17.28125 -3.46875 18.910156 -3.957031 20.078125 -4.9375 C 21.242188 -5.925781 21.828125 -7.296875 21.828125 -9.046875 C 21.828125 -10.828125 21.210938 -12.234375 19.984375 -13.265625 C 18.753906 -14.296875 17.109375 -14.8125 15.046875 -14.8125 L 7.75 -14.8125 L 7.75 -3.46875 Z M 15.1875 -3.46875 "/></g></g></g><g fill="#737373" fill-opacity="1"><g transform="translate(222.243128, 76.549471)"><g/></g></g><g fill="#737373" fill-opacity="1"><g transform="translate(236.364089, 76.549471)"><g><path d="M 13.75 0.328125 C 11.625 0.328125 9.722656 -0.046875 8.046875 -0.796875 C 6.367188 -1.554688 5.050781 -2.601562 4.09375 -3.9375 C 3.144531 -5.28125 2.65625 -6.828125 2.625 -8.578125 L 7.109375 -8.578125 C 7.265625 -7.078125 7.882812 -5.8125 8.96875 -4.78125 C 10.0625 -3.75 11.65625 -3.234375 13.75 -3.234375 C 15.75 -3.234375 17.328125 -3.734375 18.484375 -4.734375 C 19.640625 -5.734375 20.21875 -7.015625 20.21875 -8.578125 C 20.21875 -9.816406 19.878906 -10.816406 19.203125 -11.578125 C 18.523438 -12.347656 17.675781 -12.929688 16.65625 -13.328125 C 15.644531 -13.734375 14.273438 -14.164062 12.546875 -14.625 C 10.429688 -15.1875 8.734375 -15.742188 7.453125 -16.296875 C 6.171875 -16.847656 5.078125 -17.710938 4.171875 -18.890625 C 3.265625 -20.078125 2.8125 -21.671875 2.8125 -23.671875 C 2.8125 -25.429688 3.257812 -26.988281 4.15625 -28.34375 C 5.050781 -29.695312 6.304688 -30.742188 7.921875 -31.484375 C 9.535156 -32.222656 11.390625 -32.59375 13.484375 -32.59375 C 16.492188 -32.59375 18.957031 -31.835938 20.875 -30.328125 C 22.800781 -28.816406 23.890625 -26.816406 24.140625 -24.328125 L 19.53125 -24.328125 C 19.375 -25.554688 18.722656 -26.640625 17.578125 -27.578125 C 16.441406 -28.515625 14.9375 -28.984375 13.0625 -28.984375 C 11.3125 -28.984375 9.878906 -28.53125 8.765625 -27.625 C 7.660156 -26.71875 7.109375 -25.445312 7.109375 -23.8125 C 7.109375 -22.644531 7.4375 -21.691406 8.09375 -20.953125 C 8.757812 -20.210938 9.578125 -19.648438 10.546875 -19.265625 C 11.515625 -18.878906 12.875 -18.441406 14.625 -17.953125 C 16.75 -17.367188 18.457031 -16.789062 19.75 -16.21875 C 21.039062 -15.65625 22.148438 -14.78125 23.078125 -13.59375 C 24.003906 -12.40625 24.46875 -10.796875 24.46875 -8.765625 C 24.46875 -7.203125 24.050781 -5.726562 23.21875 -4.34375 C 22.382812 -2.957031 21.148438 -1.832031 19.515625 -0.96875 C 17.890625 -0.101562 15.96875 0.328125 13.75 0.328125 Z M 13.75 0.328125 "/></g></g></g><g fill="#737373" fill-opacity="1"><g transform="translate(265.248539, 76.549471)"><g><path d="M 25.0625 -22.75 C 25.0625 -20.070312 24.144531 -17.847656 22.3125 -16.078125 C 20.476562 -14.316406 17.6875 -13.4375 13.9375 -13.4375 L 7.75 -13.4375 L 7.75 0 L 3.546875 0 L 3.546875 -32.171875 L 13.9375 -32.171875 C 17.570312 -32.171875 20.332031 -31.289062 22.21875 -29.53125 C 24.113281 -27.78125 25.0625 -25.519531 25.0625 -22.75 Z M 13.9375 -16.890625 C 16.28125 -16.890625 18.003906 -17.394531 19.109375 -18.40625 C 20.210938 -19.425781 20.765625 -20.875 20.765625 -22.75 C 20.765625 -26.71875 18.488281 -28.703125 13.9375 -28.703125 L 7.75 -28.703125 L 7.75 -16.890625 Z M 13.9375 -16.890625 "/></g></g></g><g fill="#737373" fill-opacity="1"><g transform="translate(293.763863, 76.549471)"><g><path d="M 28.34375 -32.171875 L 28.34375 0 L 24.140625 0 L 24.140625 -14.578125 L 7.75 -14.578125 L 7.75 0 L 3.546875 0 L 3.546875 -32.171875 L 7.75 -32.171875 L 7.75 -18.046875 L 24.140625 -18.046875 L 24.140625 -32.171875 Z M 28.34375 -32.171875 "/></g></g></g><g fill="#737373" fill-opacity="1"><g transform="translate(327.493052, 76.549471)"><g><path d="M 7.75 -28.75 L 7.75 -18 L 19.484375 -18 L 19.484375 -14.546875 L 7.75 -14.546875 L 7.75 -3.46875 L 20.859375 -3.46875 L 20.859375 0 L 3.546875 0 L 3.546875 -32.21875 L 20.859375 -32.21875 L 20.859375 -28.75 Z M 7.75 -28.75 "/></g></g></g><g fill="#737373" fill-opacity="1"><g transform="translate(352.963103, 76.549471)"><g><path d="M 20.5 0 L 12.828125 -13.15625 L 7.75 -13.15625 L 7.75 0 L 3.546875 0 L 3.546875 -32.171875 L 13.9375 -32.171875 C 16.363281 -32.171875 18.414062 -31.753906 20.09375 -30.921875 C 21.769531 -30.085938 23.023438 -28.960938 23.859375 -27.546875 C 24.691406 -26.140625 25.109375 -24.523438 25.109375 -22.703125 C 25.109375 -20.492188 24.46875 -18.539062 23.1875 -16.84375 C 21.914062 -15.15625 20.003906 -14.035156 17.453125 -13.484375 L 25.53125 0 Z M 7.75 -16.53125 L 13.9375 -16.53125 C 16.21875 -16.53125 17.925781 -17.085938 19.0625 -18.203125 C 20.195312 -19.328125 20.765625 -20.828125 20.765625 -22.703125 C 20.765625 -24.617188 20.203125 -26.097656 19.078125 -27.140625 C 17.960938 -28.179688 16.25 -28.703125 13.9375 -28.703125 L 7.75 -28.703125 Z M 7.75 -16.53125 "/></g></g></g><g fill="#737373" fill-opacity="1"><g transform="translate(382.816495, 76.549471)"><g><path d="M 7.75 -28.75 L 7.75 -18 L 19.484375 -18 L 19.484375 -14.546875 L 7.75 -14.546875 L 7.75 -3.46875 L 20.859375 -3.46875 L 20.859375 0 L 3.546875 0 L 3.546875 -32.21875 L 20.859375 -32.21875 L 20.859375 -28.75 Z M 7.75 -28.75 "/></g></g></g><g clip-path="url(#4cd512c585)"><path fill="#868484" d="M 111.078125 46.523438 C 113.550781 49.304688 112.625 52.707031 109.535156 56.105469 C 103.96875 61.671875 91.910156 66.925781 79.542969 68.472656 C 77.378906 68.78125 74.90625 68.78125 72.742188 68.78125 C 75.214844 69.710938 78 70.019531 80.78125 70.019531 C 83.871094 74.039062 88.511719 76.511719 93.765625 76.511719 C 101.496094 76.511719 107.988281 70.945312 109.84375 63.835938 C 106.441406 65.691406 102.113281 67.234375 97.167969 67.855469 C 102.421875 66 107.058594 63.527344 110.152344 61.054688 C 116.644531 55.796875 118.808594 49.613281 111.078125 46.832031 Z M 105.824219 46.523438 C 105.824219 47.757812 106.75 48.6875 107.988281 48.6875 C 109.222656 48.6875 110.152344 47.757812 110.152344 46.523438 C 110.152344 45.285156 109.222656 44.359375 107.988281 44.359375 C 106.75 44.359375 105.824219 45.285156 105.824219 46.523438 Z M 105.824219 46.523438 " fill-opacity="1" fill-rule="evenodd"/></g><path fill="#ff5757" d="M 92.21875 48.996094 C 91.910156 47.449219 91.910156 45.59375 91.910156 44.046875 C 86.347656 44.667969 81.707031 48.066406 79.234375 52.707031 C 80.164062 52.394531 81.398438 52.085938 82.328125 51.777344 C 82.328125 50.851562 83.253906 50.230469 84.183594 50.230469 C 84.800781 50.230469 85.417969 50.542969 85.726562 51.160156 C 87.582031 50.851562 89.4375 50.542969 91.292969 50.542969 C 91.601562 49.921875 91.910156 49.613281 92.527344 49.304688 Z M 94.695312 49.304688 C 97.167969 48.066406 100.257812 47.449219 103.660156 47.140625 C 100.875 44.976562 97.476562 43.738281 93.765625 43.738281 C 93.765625 43.738281 93.457031 43.738281 93.457031 43.738281 C 93.457031 45.285156 93.457031 47.140625 93.765625 48.6875 C 94.074219 48.6875 94.695312 48.996094 95.003906 49.304688 Z M 95.3125 50.542969 C 99.640625 51.160156 103.96875 52.707031 107.988281 55.796875 C 107.988281 55.796875 108.296875 55.488281 108.296875 55.488281 C 108.296875 55.488281 108.605469 55.179688 108.605469 55.179688 C 107.679688 52.707031 106.441406 50.542969 104.585938 48.6875 L 103.96875 48.6875 C 100.566406 48.6875 97.476562 49.613281 95.003906 50.542969 Z M 94.382812 53.015625 C 95.3125 56.105469 96.546875 59.199219 98.09375 61.980469 C 101.1875 60.433594 104.585938 58.890625 107.371094 56.414062 C 103.351562 53.632812 99.332031 52.085938 95.3125 51.46875 C 95.003906 52.085938 94.695312 52.394531 94.382812 52.707031 Z M 91.601562 52.707031 C 86.964844 56.105469 83.871094 61.363281 80.78125 66.925781 C 81.089844 66.925781 81.398438 66.925781 81.707031 66.925781 C 86.964844 66 92.21875 64.453125 97.167969 62.597656 C 95.3125 59.507812 94.074219 56.414062 93.148438 53.324219 C 92.527344 53.324219 91.910156 53.015625 91.601562 52.707031 Z M 90.984375 51.46875 C 89.4375 51.46875 87.582031 51.777344 85.726562 52.085938 C 85.726562 53.015625 84.800781 53.632812 83.871094 53.632812 C 83.253906 53.632812 82.636719 53.324219 82.328125 53.015625 C 81.089844 53.324219 79.851562 53.632812 78.617188 54.25 L 78 54.558594 C 77.378906 56.414062 76.761719 58.578125 76.761719 60.742188 C 76.761719 63.21875 77.378906 65.691406 78.308594 67.855469 L 78.617188 67.855469 L 78.925781 67.546875 C 82.015625 61.363281 85.417969 55.796875 90.363281 52.394531 Z M 90.984375 51.46875 " fill-opacity="1" fill-rule="evenodd"/></svg>